<?xml version="1.0" encoding="UTF-8"?> <svg xmlns="http://www.w3.org/2000/svg" width="62" height="62" viewBox="0 0 62 62" fill="none"> <g clip-path="url(#clip0_235_58)"> <path opacity="0.3" d="M61.72 30.86C61.72 13.8165 47.9035 0 30.86 0C13.8165 0 0 13.8165 0 30.86C0 47.9035 13.8165 61.72 30.86 61.72C47.9035 61.72 61.72 47.9035 61.72 30.86Z" fill="#CABEB9"></path> <path d="M42.77 16.97C42.95 16.97 43.14 16.97 43.32 16.97C43.37 17 43.43 17.02 43.48 17.05C44.08 17.29 44.4 17.85 44.28 18.48C43.76 21.19 43.25 23.9 42.73 26.61C41.88 31.08 41.03 35.56 40.17 40.03C39.91 41.4 39.65 42.77 39.38 44.14C39.27 44.71 38.92 45.07 38.34 45.18C37.94 45.26 37.6 45.09 37.27 44.87C34.76 43.16 32.24 41.46 29.73 39.75C29.56 39.63 29.45 39.63 29.28 39.75C27.99 40.69 26.68 41.63 25.38 42.56C24.48 43.2 23.55 42.87 23.27 41.8C22.6 39.26 21.92 36.73 21.26 34.19C21.19 33.94 21.07 33.82 20.84 33.73C18.5 32.85 16.17 31.94 13.82 31.06C13.28 30.86 12.87 30.55 12.72 29.96V29.59C12.85 29.03 13.22 28.72 13.74 28.51C22.44 25.05 31.14 21.59 39.84 18.13C40.81 17.74 41.77 17.35 42.74 16.96L42.77 16.97ZM27.32 35.1C30.65 37.36 33.95 39.59 37.28 41.85C38.55 35.18 39.81 28.56 41.07 21.95C41.05 21.95 41.02 21.94 41 21.93C36.45 26.31 31.9 30.68 27.31 35.1H27.32ZM24.06 34.95C24.28 34.68 24.48 34.38 24.73 34.14C28.88 30.14 33.03 26.15 37.18 22.16C37.29 22.06 37.41 21.96 37.52 21.86C37.5 21.84 37.49 21.82 37.47 21.8C30.81 24.45 24.15 27.1 17.44 29.77C17.59 29.83 17.68 29.88 17.77 29.91C19.12 30.43 20.47 30.95 21.82 31.46C23.29 32.01 23.27 31.99 23.65 33.5C23.78 34 23.92 34.5 24.04 34.96L24.06 34.95ZM24.36 36.11C24.67 37.27 24.97 38.41 25.28 39.59C25.98 39.08 26.63 38.61 27.31 38.12C26.31 37.44 25.36 36.79 24.36 36.11Z" fill="#8C8683"></path> <path d="M27.3199 35.0899C31.9099 30.6799 36.4599 26.2999 41.0099 21.9199C41.0299 21.9199 41.0599 21.9299 41.0799 21.9399C39.8199 28.5499 38.5599 35.1699 37.2899 41.8399C33.9599 39.5799 30.6599 37.3499 27.3299 35.0899H27.3199Z" fill="#8C8683"></path> <path d="M24.06 34.9403C23.94 34.4803 23.8 33.9903 23.67 33.4803C23.29 31.9603 23.31 31.9903 21.84 31.4403C20.49 30.9303 19.14 30.4103 17.79 29.8903C17.7 29.8503 17.6 29.8103 17.46 29.7503C24.17 27.0803 30.83 24.4303 37.49 21.7803C37.51 21.8003 37.52 21.8203 37.54 21.8403C37.43 21.9403 37.31 22.0303 37.2 22.1403C33.05 26.1303 28.89 30.1303 24.75 34.1203C24.5 34.3603 24.3 34.6603 24.08 34.9303L24.06 34.9403Z" fill="#8C8683"></path> <path d="M24.36 36.0996C25.36 36.7796 26.32 37.4296 27.31 38.1096C26.63 38.5996 25.98 39.0696 25.28 39.5796C24.97 38.3996 24.67 37.2696 24.36 36.0996Z" fill="#8C8683"></path> </g> <defs> <clipPath id="clip0_235_58"> <rect width="61.72" height="61.72" fill="white"></rect> </clipPath> </defs> </svg> 