<?xml version="1.0" encoding="UTF-8"?> <svg xmlns="http://www.w3.org/2000/svg" width="62" height="62" viewBox="0 0 62 62" fill="none"> <g clip-path="url(#clip0_235_48)"> <path opacity="0.3" d="M61.72 30.86C61.72 13.8165 47.9035 0 30.86 0C13.8165 0 0 13.8165 0 30.86C0 47.9035 13.8165 61.72 30.86 61.72C47.9035 61.72 61.72 47.9035 61.72 30.86Z" fill="#CABEB9"></path> <path d="M23.72 16.2405C28.62 16.2405 33.52 16.2405 38.42 16.2405C38.48 16.2605 38.53 16.3005 38.59 16.3105C42.71 16.9005 45.61 20.2405 45.62 24.3905C45.62 28.6605 45.62 32.9205 45.62 37.1905C45.62 37.6405 45.6 38.1005 45.53 38.5505C44.91 42.4505 41.53 45.3205 37.57 45.3305C33.25 45.3305 28.94 45.3305 24.62 45.3305C20.97 45.3305 17.82 42.9305 16.84 39.4105C16.72 38.9905 16.64 38.5605 16.54 38.1305C16.54 33.2305 16.54 28.3305 16.54 23.4305C16.56 23.3705 16.6 23.3205 16.61 23.2605C17.18 19.7805 19.18 17.5405 22.54 16.5005C22.93 16.3805 23.34 16.3205 23.74 16.2305L23.72 16.2405ZM31.08 22.7105C26.64 22.7005 23.04 26.2805 23 30.7505C22.96 35.1905 26.59 38.8405 31.06 38.8505C35.5 38.8605 39.1 35.2805 39.14 30.8005C39.18 26.3605 35.55 22.7105 31.08 22.7005V22.7105ZM42.37 21.1205C42.37 20.2105 41.69 19.5005 40.79 19.4905C39.9 19.4905 39.18 20.1705 39.17 21.0405C39.15 21.9505 39.84 22.6805 40.73 22.6905C41.64 22.7005 42.36 22.0105 42.37 21.1205Z" fill="#8C8683"></path> <path d="M35.9101 30.7607C35.9101 33.4607 33.7601 35.6207 31.0701 35.6207C28.3701 35.6207 26.2201 33.4707 26.2201 30.7707C26.2201 28.0707 28.3801 25.9207 31.0801 25.9307C33.7501 25.9307 35.9101 28.0907 35.9201 30.7607H35.9101Z" fill="#8C8683"></path> </g> <defs> <clipPath id="clip0_235_48"> <rect width="61.72" height="61.72" fill="white"></rect> </clipPath> </defs> </svg> 