<?xml version="1.0" encoding="UTF-8"?> <svg xmlns="http://www.w3.org/2000/svg" width="62" height="62" viewBox="0 0 62 62" fill="none"> <g clip-path="url(#clip0_235_54)"> <path opacity="0.3" d="M61.72 30.86C61.72 13.8165 47.9035 0 30.86 0C13.8165 0 0 13.8165 0 30.86C0 47.9035 13.8165 61.72 30.86 61.72C47.9035 61.72 61.72 47.9035 61.72 30.86Z" fill="#CABEB9"></path> <path d="M10.23 21.6598V21.0698C10.59 20.6498 11.08 20.5598 11.6 20.5598C13.21 20.5598 14.83 20.5498 16.44 20.5398C17.57 20.5398 17.98 20.8098 18.43 21.8398C19.43 24.1098 20.52 26.3198 21.85 28.4198C22.26 29.0698 22.75 29.6698 23.44 30.0598C24.01 30.3798 24.52 30.2598 24.73 29.6598C24.95 29.0198 25.06 28.3498 25.15 27.6798C25.38 26.1498 25.3 24.6198 25.05 23.0898C24.9 22.1898 24.48 21.5098 23.54 21.2698C23.41 21.2398 23.28 21.1898 23.14 21.1798C22.83 21.1398 22.82 20.9798 22.99 20.7798C23.33 20.3498 23.75 20.0098 24.29 19.9098C24.97 19.7898 25.66 19.6798 26.35 19.6498C27.95 19.5598 29.55 19.5298 31.13 19.8298C31.8 19.9598 32.33 20.2598 32.46 20.9898C32.54 21.4598 32.61 21.9398 32.6 22.4198C32.58 24.2698 32.51 26.1098 32.5 27.9598C32.5 28.4698 32.58 28.9998 32.74 29.4898C33 30.2498 33.64 30.3898 34.21 29.8298C34.67 29.3798 35.14 28.9298 35.51 28.4098C37 26.3698 38.2 24.1698 39.13 21.8298C39.59 20.6598 39.85 20.6198 40.87 20.6298C42.87 20.6398 44.86 20.5898 46.86 20.5798C47.09 20.5798 47.33 20.5998 47.56 20.6598C48.22 20.8198 48.48 21.1898 48.3 21.8298C48.15 22.3898 47.94 22.9298 47.67 23.4398C46.72 25.2498 45.43 26.8198 44.22 28.4498C43.58 29.3098 42.95 30.1898 42.36 31.0898C42.01 31.6198 42.06 32.2098 42.44 32.7298C42.7 33.0798 43 33.3898 43.3 33.6998C44.35 34.7598 45.44 35.7698 46.44 36.8698C47.03 37.5098 47.58 38.2198 48 38.9898C48.65 40.1798 48.35 40.8898 47.29 41.1598C46.99 41.2398 46.67 41.2398 46.37 41.2398C44.68 41.2698 43 41.2998 41.31 41.3298C41.14 41.3298 40.96 41.3198 40.79 41.2898C39.78 41.1098 38.93 40.6198 38.22 39.8898C37.41 39.0498 36.65 38.1698 35.84 37.3298C35.54 37.0198 35.2 36.7398 34.85 36.4998C34.28 36.1098 33.82 36.1598 33.38 36.6998C33.12 37.0198 32.88 37.3998 32.79 37.7898C32.63 38.4798 32.58 39.1998 32.51 39.9098C32.41 40.7698 32.14 41.1198 31.27 41.2098C30.46 41.2898 29.63 41.2698 28.82 41.2398C28.09 41.2198 27.35 41.1898 26.64 41.0498C23.71 40.4498 21.29 38.8798 19.29 36.7398C17.24 34.5598 15.6 32.0498 14.1 29.4598C12.65 26.9498 11.37 24.3598 10.22 21.7098L10.23 21.6598Z" fill="#8C8683"></path> </g> <defs> <clipPath id="clip0_235_54"> <rect width="61.72" height="61.72" fill="white"></rect> </clipPath> </defs> </svg> 