<?xml version="1.0" encoding="UTF-8"?> <svg xmlns="http://www.w3.org/2000/svg" width="30" height="30" viewBox="0 0 30 30" fill="none"> <g clip-path="url(#clip0_235_79)"> <g opacity="0.35"> <path d="M6.33995 0C7.28995 0.19 7.97995 0.78 8.61995 1.45C9.76995 2.63 10.9599 3.77 12.0799 4.98C13.1299 6.11 13.1299 7.64 12.0899 8.8C11.3699 9.6 10.5899 10.34 9.81995 11.1C9.65995 11.25 9.62995 11.36 9.72995 11.56C10.4999 13.16 11.5999 14.52 12.7999 15.8C14.0299 17.12 15.3699 18.3 16.8899 19.27C17.3099 19.54 17.7499 19.75 18.1799 20C18.3299 20.08 18.4099 20.06 18.5299 19.94C19.1799 19.28 19.8099 18.61 20.4899 17.99C20.8599 17.65 21.2599 17.32 21.7099 17.12C22.8699 16.61 23.9199 16.9 24.8099 17.75C26.0899 18.99 27.3299 20.27 28.5999 21.52C29.9199 22.81 30.0299 24.53 28.8099 25.85C27.9099 26.82 26.9899 27.79 26.0099 28.67C24.9599 29.62 23.6499 29.86 22.2599 29.75C20.0899 29.58 18.0999 28.81 16.1699 27.85C13.3099 26.43 10.7199 24.62 8.43995 22.39C5.00995 19.04 2.24995 15.23 0.669949 10.65C0.239949 9.37 -0.0300515 8.06 -5.15224e-05 6.7C0.0299485 5.42 0.449949 4.29 1.34995 3.36C2.12995 2.55 2.92995 1.76 3.72995 0.97C4.24995 0.47 4.86995 0.14 5.57995 0L6.33995 0ZM22.7799 28.28C23.6899 28.3 24.5299 28.07 25.1799 27.43C26.0499 26.59 26.8899 25.72 27.7099 24.83C28.3099 24.17 28.3099 23.44 27.6899 22.8C26.3799 21.45 25.0499 20.13 23.6999 18.81C23.1899 18.31 22.5399 18.29 21.9499 18.71C21.7899 18.82 21.6499 18.96 21.5099 19.09C20.7899 19.81 20.0699 20.53 19.3499 21.25C18.8699 21.73 18.3599 21.81 17.7599 21.5C17.3299 21.28 16.8999 21.06 16.4799 20.81C14.6799 19.72 13.0899 18.36 11.6599 16.82C10.2999 15.36 9.06995 13.81 8.23995 11.97C7.88995 11.18 7.96995 10.75 8.58995 10.15C9.31995 9.44 10.0599 8.74 10.7599 8C11.4999 7.23 11.4799 6.58 10.7599 5.78C10.7299 5.75 10.7099 5.72 10.6799 5.69C9.46995 4.48 8.26995 3.27 7.05995 2.07C6.87995 1.89 6.65995 1.72 6.42995 1.61C5.73995 1.3 5.18995 1.61 4.70995 2.08C3.97995 2.79 3.24995 3.5 2.55995 4.25C2.22995 4.61 1.92995 5.04 1.73995 5.5C1.32995 6.46 1.44995 7.48 1.64995 8.47C2.02995 10.37 2.75995 12.14 3.70995 13.81C7.09995 19.79 11.8499 24.31 18.1699 27.11C19.6299 27.76 21.1499 28.2 22.7599 28.26L22.7799 28.28Z" fill="#8B8582"></path> </g> </g> <defs> <clipPath id="clip0_235_79"> <rect width="29.67" height="29.78" fill="white"></rect> </clipPath> </defs> </svg> 