<?xml version="1.0" encoding="UTF-8"?> <svg xmlns="http://www.w3.org/2000/svg" width="25" height="39" viewBox="0 0 25 39" fill="none"> <g clip-path="url(#clip0_235_87)"> <path opacity="0.35" d="M12.22 0C15.91 0.08 18.95 1.39 21.38 4.02C23.07 5.84 24.06 8 24.49 10.46C24.92 12.93 24.26 15.18 23.27 17.38C21.55 21.2 19.22 24.66 16.76 28.03C15.61 29.6 14.39 31.11 13.2 32.65C13.16 32.7 13.12 32.75 13.08 32.8C12.53 33.41 12.06 33.41 11.53 32.76C10.73 31.79 9.94997 30.81 9.18997 29.8C7.22997 27.22 5.35997 24.59 3.69997 21.81C2.53997 19.87 1.48997 17.89 0.699966 15.76C-0.530034 12.44 -0.0800343 9.28 1.61997 6.28C3.52997 2.9 6.46997 0.91 10.28 0.18C10.47 0.14 10.65 0.11 10.84 0.1C11.33 0.06 11.83 0.03 12.22 0ZM12.3 30.98C12.42 30.85 12.49 30.78 12.55 30.7C14.37 28.2 16.24 25.73 18.01 23.18C19.65 20.83 21.07 18.34 22.14 15.67C22.79 14.06 23.08 12.4 22.78 10.68C22.32 8.06 21.11 5.86 19.03 4.16C16.44 2.05 13.46 1.29 10.22 1.96C6.62997 2.69 4.04997 4.82 2.57997 8.19C1.73997 10.12 1.44997 12.13 2.00997 14.2C2.46997 15.92 3.24997 17.51 4.10997 19.07C5.90997 22.35 8.04997 25.4 10.3 28.38C10.95 29.24 11.62 30.09 12.3 30.97V30.98Z" fill="#8B8582"></path> <path opacity="0.35" d="M12.34 36.51C14.93 36.52 17.49 36.27 19.95 35.42C20.75 35.14 21.49 34.68 22.25 34.28C22.39 34.21 22.51 34.07 22.61 33.95C23 33.49 22.98 33.07 22.56 32.63C22.03 32.07 21.38 31.71 20.67 31.46C19.75 31.14 18.82 30.88 17.88 30.62C17.32 30.47 17.03 30.11 17.12 29.58C17.2 29.1 17.59 28.82 18.14 28.93C19.97 29.27 21.74 29.8 23.26 30.94C24.01 31.5 24.58 32.22 24.62 33.21C24.66 34.26 24.12 35.03 23.34 35.64C22.02 36.68 20.45 37.2 18.84 37.56C16.05 38.19 13.21 38.38 10.35 38.19C8.02001 38.04 5.74001 37.71 3.55001 36.88C2.69001 36.55 1.88001 36.14 1.17001 35.55C-0.449988 34.2 -0.369988 32.2 1.35001 30.93C2.75001 29.9 4.36001 29.39 6.02001 29C6.30001 28.94 6.59001 28.85 6.88001 28.87C7.33001 28.9 7.65001 29.3 7.65001 29.72C7.65001 30.14 7.30001 30.5 6.84001 30.6C5.42001 30.89 4.03001 31.26 2.80001 32.04C2.50001 32.23 2.23001 32.47 1.99001 32.72C1.68001 33.04 1.64001 33.46 1.93001 33.79C2.22001 34.12 2.56001 34.42 2.94001 34.64C4.30001 35.45 5.81001 35.86 7.35001 36.09C9.00001 36.33 10.68 36.45 12.34 36.62C12.34 36.58 12.34 36.54 12.35 36.51H12.34Z" fill="#8B8582"></path> <path opacity="0.35" d="M12.45 16.4802C9.75003 16.5102 7.34003 14.2602 7.37003 11.3502C7.39003 8.44023 9.81003 6.21023 12.59 6.27023C15.41 6.33023 17.66 8.64023 17.58 11.5602C17.51 14.3502 15.16 16.5302 12.45 16.4802ZM15.84 11.3702C15.91 9.73023 14.55 8.00023 12.45 8.00023C10.53 8.00023 9.09003 9.59023 9.10003 11.3802C9.10003 13.2402 10.64 14.8102 12.48 14.7802C14.5 14.7502 15.91 13.0802 15.84 11.3702Z" fill="#8B8582"></path> </g> <defs> <clipPath id="clip0_235_87"> <rect width="24.63" height="38.26" fill="white"></rect> </clipPath> </defs> </svg> 