<?xml version="1.0" encoding="UTF-8"?> <svg xmlns="http://www.w3.org/2000/svg" width="33" height="33" viewBox="0 0 33 33" fill="none"> <g clip-path="url(#clip0_235_75)"> <g opacity="0.35"> <path d="M14.82 29.47V26.98H17.5V29.42C22.87 29.24 28.91 24.44 29.49 17.54H27V14.83H29.6399C29.3199 13.61 29.08 12.52 28.75 11.46C28.6 10.99 28.65 10.71 29 10.38C29.5 9.91001 29.93 9.37001 30.42 8.83001C33.43 13.74 33.2799 22.72 26.6399 28.47C20.2999 33.96 10.42 33.5 4.55995 27.37C-1.49005 21.05 -1.53005 11.32 4.52995 4.97001C10.45 -1.22999 19.58 -1.24999 25.12 2.80001C24.5 3.42001 23.8899 4.04001 23.2299 4.69001C21.4899 3.68001 19.65 3.01001 17.54 2.81001V5.34001H14.83V2.88001C9.18995 3.12001 3.36995 8.13001 2.84995 14.78H5.33995V17.49H2.88995C3.11995 23.07 8.06995 28.94 14.82 29.48V29.47Z" fill="#8B8582"></path> <path d="M29.9399 1.70996C30.6399 2.40996 31.2599 3.02996 31.7699 3.53996C26.5499 8.77996 21.3299 14.02 16.1399 19.23C14.1299 17.18 12.0699 15.08 10.0199 12.98C10.5199 12.46 11.1299 11.83 11.8299 11.1C13.2899 12.59 14.7199 14.03 16.1899 15.53C20.7999 10.9 25.3699 6.30996 29.9499 1.70996H29.9399Z" fill="#8B8582"></path> </g> </g> <defs> <clipPath id="clip0_235_75"> <rect width="32.3" height="32.3" fill="white"></rect> </clipPath> </defs> </svg> 