<?xml version="1.0" encoding="UTF-8"?> <svg xmlns="http://www.w3.org/2000/svg" width="28" height="21" viewBox="0 0 28 21" fill="none"> <g clip-path="url(#clip0_235_82)"> <g opacity="0.35"> <path d="M14 0C18.18 0 22.37 0 26.56 0C27.65 0 27.92 0.28 27.92 1.37C27.92 7.28 27.92 13.19 27.92 19.1C27.92 20.19 27.65 20.47 26.56 20.47C18.16 20.47 9.76 20.47 1.36 20.47C0.27 20.47 0 20.19 0 19.1C0 13.19 0 7.28 0 1.37C0 0.28 0.28 0 1.36 0C5.57 0 9.78 0 14 0ZM26.05 2.76C25.83 2.91 25.7 2.99 25.57 3.08C22.02 5.61 18.47 8.15 14.92 10.68C14.06 11.3 13.87 11.29 12.99 10.67C9.46 8.15 5.93 5.63 2.39 3.1C2.24 2.99 2.08 2.9 1.9 2.79V18.56H26.05V2.76ZM24.05 1.89H3.88C7.32 4.35 10.64 6.72 13.97 9.09C17.3 6.71 20.62 4.34 24.06 1.89H24.05Z" fill="#8B8582"></path> </g> </g> <defs> <clipPath id="clip0_235_82"> <rect width="27.92" height="20.47" fill="white"></rect> </clipPath> </defs> </svg> 